<svg xmlns="http://www.w3.org/2000/svg" width="1080" height="640" viewBox="0 0 1080 640" role="img" aria-labelledby="title desc">
<title id="title">SpaceX Static Fire safe flight zone</title><desc id="desc">Classroom physical Tello first flight setup with safe fly zone, driver, navigator, safety observer, battery boxes and short hover mission.</desc>
<defs><linearGradient id="bg" x1="0" y1="0" x2="1" y2="1"><stop offset="0" stop-color="#0f172a"/><stop offset=".55" stop-color="#123c69"/><stop offset="1" stop-color="#0f766e"/></linearGradient><filter id="sh"><feDropShadow dx="0" dy="10" stdDeviation="10" flood-color="#020617" flood-opacity=".28"/></filter><marker id="arr" markerWidth="12" markerHeight="12" refX="10" refY="6" orient="auto"><path d="M2,2 L10,6 L2,10 Z" fill="#22c55e"/></marker></defs>
<rect width="1080" height="640" rx="34" fill="url(#bg)"/><text x="540" y="58" text-anchor="middle" font-family="Rubik,Arial" font-size="32" font-weight="900" fill="#ecfeff">SpaceX Static Fire · הטסה פיזית ראשונה</text><text x="540" y="92" text-anchor="middle" font-family="Rubik,Arial" font-size="18" font-weight="800" fill="#bae6fd">Safe Fly Zone · Driver / Navigator / Safety Observer · Double Network Handshake</text>
<g transform="translate(275 145)" filter="url(#sh)"><rect x="0" y="0" width="530" height="330" rx="28" fill="#ecfdf5" stroke="#22c55e" stroke-width="8" stroke-dasharray="20 13"/><text x="265" y="38" text-anchor="middle" font-family="Rubik,Arial" font-size="23" font-weight="900" fill="#166534">אזור טיסה סטרילי 1.5×1.5 מטר</text><rect x="205" y="118" width="120" height="80" rx="20" fill="#fff" stroke="#0f766e" stroke-width="4"/><text x="265" y="152" text-anchor="middle" font-family="Rubik,Arial" font-size="17" font-weight="900" fill="#0f766e">Tello</text><text x="265" y="178" text-anchor="middle" font-family="Rubik,Arial" font-size="33">🚁</text><path d="M265 205 L265 94" stroke="#22c55e" stroke-width="8" marker-end="url(#arr)"/><text x="360" y="105" font-family="Rubik,Arial" font-size="17" font-weight="900" fill="#166534">Hover 5s</text><path d="M325 170 L425 170" stroke="#0ea5e9" stroke-width="7" marker-end="url(#arr)"/><text x="375" y="160" text-anchor="middle" font-family="Rubik,Arial" font-size="15" font-weight="900" fill="#075985">Forward 24״</text></g>
<g font-family="Rubik,Arial" font-weight="900" filter="url(#sh)"><rect x="70" y="170" width="165" height="105" rx="22" fill="#fff7ed"/><text x="152" y="205" text-anchor="middle" font-size="20" fill="#9a3412">Navigator</text><text x="152" y="232" text-anchor="middle" font-size="14" fill="#334155">בודק קוד וסינטקס</text><text x="152" y="260" text-anchor="middle" font-size="26">🧭</text><rect x="70" y="325" width="165" height="105" rx="22" fill="#ecfeff"/><text x="152" y="360" text-anchor="middle" font-size="20" fill="#0e7490">Driver</text><text x="152" y="387" text-anchor="middle" font-size="14" fill="#334155">Run / Abort בלבד</text><text x="152" y="415" text-anchor="middle" font-size="26">📱</text><rect x="845" y="248" width="170" height="120" rx="22" fill="#fff1f2"/><text x="930" y="284" text-anchor="middle" font-size="20" fill="#be123c">Safety Observer</text><text x="930" y="312" text-anchor="middle" font-size="14" fill="#334155">קשר עין 100%</text><text x="930" y="343" text-anchor="middle" font-size="28">🛡️</text></g>
<g font-family="Rubik,Arial" font-weight="900"><rect x="260" y="520" width="250" height="72" rx="22" fill="#dcfce7"/><text x="385" y="550" text-anchor="middle" font-size="18" fill="#166534">קופסה ירוקה</text><text x="385" y="575" text-anchor="middle" font-size="15" fill="#334155">סוללות מלאות 100%</text><rect x="570" y="520" width="250" height="72" rx="22" fill="#fee2e2"/><text x="695" y="550" text-anchor="middle" font-size="18" fill="#991b1b">קופסה אדומה</text><text x="695" y="575" text-anchor="middle" font-size="15" fill="#334155">סוללות ריקות / מתחת 20%</text></g>
</svg>
