<svg xmlns="http://www.w3.org/2000/svg" viewBox="0 0 960 540" role="img">
  <defs>
    <linearGradient id="bg" x1="0" y1="0" x2="1" y2="1">
      <stop offset="0" stop-color="#0f172a"/>
      <stop offset="1" stop-color="#38bdf8"/>
    </linearGradient>
    <filter id="shadow" x="-20%" y="-20%" width="140%" height="140%">
      <feDropShadow dx="0" dy="20" stdDeviation="18" flood-color="#0f172a" flood-opacity=".25"/>
    </filter>
  </defs>
  <rect width="960" height="540" rx="42" fill="url(#bg)"/>
  <circle cx="116" cy="96" r="76" fill="#fff" opacity=".13"/>
  <circle cx="826" cy="424" r="128" fill="#fff" opacity=".12"/>
  <path d="M84 434 C210 330 328 506 470 388 C620 264 698 330 858 206" fill="none" stroke="#fff" stroke-width="18" opacity=".14" stroke-linecap="round"/>
  <path d="M342 206h276M480 206v92" stroke="#fff" stroke-width="24" stroke-linecap="round"/><rect x="428" y="226" width="104" height="72" rx="22" fill="#fff"/><circle cx="302" cy="206" r="48" fill="none" stroke="#fff" stroke-width="14"/><circle cx="658" cy="206" r="48" fill="none" stroke="#fff" stroke-width="14"/><g fill="#fff" opacity=".86"><rect x="298" y="358" width="56" height="62" rx="10"/><rect x="390" y="318" width="56" height="102" rx="10"/><rect x="482" y="338" width="56" height="82" rx="10"/><rect x="574" y="282" width="56" height="138" rx="10"/></g>
</svg>
