<svg xmlns="http://www.w3.org/2000/svg" viewBox="0 0 960 540" role="img">
  <defs>
    <linearGradient id="bg" x1="0" y1="0" x2="1" y2="1">
      <stop offset="0" stop-color="#f59e0b"/>
      <stop offset="1" stop-color="#22c55e"/>
    </linearGradient>
    <filter id="shadow" x="-20%" y="-20%" width="140%" height="140%">
      <feDropShadow dx="0" dy="20" stdDeviation="18" flood-color="#0f172a" flood-opacity=".25"/>
    </filter>
  </defs>
  <rect width="960" height="540" rx="42" fill="url(#bg)"/>
  <circle cx="116" cy="96" r="76" fill="#fff" opacity=".13"/>
  <circle cx="826" cy="424" r="128" fill="#fff" opacity=".12"/>
  <path d="M84 434 C210 330 328 506 470 388 C620 264 698 330 858 206" fill="none" stroke="#fff" stroke-width="18" opacity=".14" stroke-linecap="round"/>
  <circle cx="480" cy="272" r="132" fill="#fff" opacity=".92" filter="url(#shadow)"/><path d="M480 182v184M536 214c-26-24-98-28-112 14-22 66 126 42 104 110-14 42-90 38-126 8" stroke="#0f172a" stroke-width="24" fill="none" opacity=".25" stroke-linecap="round"/><g fill="#fff" opacity=".7"><rect x="238" y="336" width="116" height="64" rx="16"/><rect x="606" y="142" width="116" height="64" rx="16"/></g>
</svg>
