<svg xmlns="http://www.w3.org/2000/svg" viewBox="0 0 180 96">
  <defs>
    <linearGradient id="body" x1="0" y1="0" x2="1" y2="1">
      <stop offset="0" stop-color="#ff8a8a"/>
      <stop offset="0.48" stop-color="#ef4444"/>
      <stop offset="1" stop-color="#b91c1c"/>
    </linearGradient>
    <linearGradient id="hood" x1="0" y1="0" x2="0" y2="1">
      <stop offset="0" stop-color="#fecaca" stop-opacity=".65"/>
      <stop offset="1" stop-color="#dc2626" stop-opacity=".25"/>
    </linearGradient>
    <linearGradient id="glass" x1="0" y1="0" x2="1" y2="1">
      <stop offset="0" stop-color="#f0f9ff"/>
      <stop offset="0.55" stop-color="#7dd3fc"/>
      <stop offset="1" stop-color="#0284c7"/>
    </linearGradient>
  </defs>
  <g fill="none" fill-rule="evenodd">
    <rect x="18" y="31" width="144" height="45" rx="22" fill="url(#body)" stroke="#7f1d1d" stroke-width="3"/>
    <path d="M49 31c7-18 20-26 41-26s34 8 41 26H49Z" fill="url(#body)" stroke="#7f1d1d" stroke-width="3" stroke-linejoin="round"/>
    <path d="M35 36h110c-7 8-17 12-31 12H65c-13 0-23-4-30-12Z" fill="url(#hood)"/>
    <path d="M63 15h54c4 4 7 9 10 16H53c3-7 6-12 10-16Z" fill="url(#glass)" stroke="#0369a1" stroke-width="3" stroke-linejoin="round"/>
    <path d="M89 15v16" stroke="#0c4a6e" stroke-width="3" opacity=".65"/>
    <rect x="35" y="44" width="24" height="8" rx="4" fill="#fecaca" opacity=".45"/>
    <rect x="121" y="44" width="24" height="8" rx="4" fill="#fecaca" opacity=".45"/>
    <circle cx="47" cy="76" r="12" fill="#111827" stroke="#020617" stroke-width="3"/>
    <circle cx="133" cy="76" r="12" fill="#111827" stroke="#020617" stroke-width="3"/>
    <circle cx="47" cy="76" r="5" fill="#cbd5e1"/>
    <circle cx="133" cy="76" r="5" fill="#cbd5e1"/>
    <circle cx="19" cy="55" r="6" fill="#fde68a" stroke="#f59e0b" stroke-width="2"/>
    <circle cx="161" cy="55" r="5" fill="#fee2e2" stroke="#ef4444" stroke-width="2"/>
    <path d="M42 28c9-8 24-12 45-12" stroke="#fff" stroke-width="5" stroke-linecap="round" opacity=".42"/>
  </g>
</svg>
