<svg xmlns="http://www.w3.org/2000/svg" viewBox="0 0 720 420" role="img" aria-labelledby="title desc">
  <title id="title">Packet Patrol network lab</title>
  <desc id="desc">A network control room diagram with laptop, DNS, server and packet lines.</desc>
  <defs>
    <linearGradient id="bg" x1="0" x2="1" y1="0" y2="1">
      <stop offset="0" stop-color="#0f172a"/>
      <stop offset="1" stop-color="#0f766e"/>
    </linearGradient>
    <linearGradient id="line" x1="0" x2="1">
      <stop offset="0" stop-color="#22d3ee"/>
      <stop offset="1" stop-color="#a7f3d0"/>
    </linearGradient>
  </defs>
  <rect width="720" height="420" rx="32" fill="url(#bg)"/>
  <g fill="none" stroke="rgba(255,255,255,.16)" stroke-width="1">
    <path d="M60 75h600M60 135h600M60 195h600M60 255h600M60 315h600"/>
    <path d="M120 40v340M240 40v340M360 40v340M480 40v340M600 40v340"/>
  </g>
  <g stroke="url(#line)" stroke-width="6" stroke-linecap="round" stroke-dasharray="18 14">
    <path d="M145 214 C230 110 310 112 360 194"/>
    <path d="M360 194 C418 285 502 285 575 210"/>
  </g>
  <g>
    <rect x="84" y="160" width="126" height="86" rx="16" fill="#e0f2fe"/>
    <rect x="105" y="178" width="84" height="44" rx="8" fill="#0369a1"/>
    <path d="M72 258h150l-18 22H90z" fill="#bae6fd"/>
    <text x="147" y="316" text-anchor="middle" font-family="Arial, sans-serif" font-size="24" font-weight="700" fill="#e0f2fe">10.0.0.23</text>
  </g>
  <g>
    <circle cx="360" cy="198" r="72" fill="#ecfeff" opacity=".96"/>
    <circle cx="360" cy="198" r="45" fill="#0891b2"/>
    <text x="360" y="188" text-anchor="middle" font-family="Arial, sans-serif" font-size="28" font-weight="900" fill="#ecfeff">DNS</text>
    <text x="360" y="219" text-anchor="middle" font-family="Arial, sans-serif" font-size="18" font-weight="700" fill="#cffafe">name → IP</text>
  </g>
  <g>
    <rect x="524" y="135" width="112" height="154" rx="18" fill="#ccfbf1"/>
    <rect x="546" y="160" width="68" height="18" rx="9" fill="#0f766e"/>
    <rect x="546" y="198" width="68" height="18" rx="9" fill="#0f766e"/>
    <rect x="546" y="236" width="68" height="18" rx="9" fill="#0f766e"/>
    <text x="580" y="325" text-anchor="middle" font-family="Arial, sans-serif" font-size="24" font-weight="700" fill="#ccfbf1">203.0.113.24</text>
  </g>
  <g font-family="Arial, sans-serif" font-weight="800">
    <rect x="242" y="74" width="236" height="44" rx="22" fill="#fef3c7"/>
    <text x="360" y="103" text-anchor="middle" font-size="22" fill="#92400e">HTTPS · encrypted=true</text>
    <rect x="250" y="318" width="220" height="44" rx="22" fill="#fee2e2"/>
    <text x="360" y="347" text-anchor="middle" font-size="22" fill="#991b1b">HTTP · exposed path</text>
  </g>
</svg>
